# xmcd CD database file
#
# Track frame offsets:
#	150
#	33662
#	68379
#	101296
#	122326
#	143170
#	176512
#
# Disc length: 2717 seconds
#
# Revision: 0
# Processed by: cddbd v1.5PL3 Copyright (c) Steve Scherf et al.
# Submitted via: CDex 1.51
#
DISCID=500a9b07
DTITLE=B'z - BAD COMMUNICATION
DYEAR=1989
DGENRE=JPop
TTITLE0=BAD COMMUNICATION
TTITLE1=OUT OF THE RUN -OFF THE LOCK STYLE-
TTITLE2=DA･KA･RA･SO･NO･TE･O･HA･NA･SHI･TE
TTITLE3=I Wanna Dance Wicked Beat Style
TTITLE4=Komachi-Angel Red Hat Style
TTITLE5=BAD COMMUNICATION E.Style
TTITLE6=Lady-Go-Round "W-40" S Since:1990
EXTD=YEAR: 1989
EXTT0=
EXTT1=
EXTT2=
EXTT3=
EXTT4=
EXTT5=
EXTT6=
PLAYORDER=
